<?xml version="1.0" encoding="UTF-8"?>
<!DOCTYPE svg PUBLIC "-//W3C//DTD SVG 1.1//EN" "http://www.w3.org/Graphics/SVG/1.1/DTD/svg11.dtd">
<!-- Creator: CorelDRAW 2020 (64-Bit) -->
<svg xmlns="http://www.w3.org/2000/svg" xml:space="preserve" width="34.102mm" height="28.3292mm" version="1.1" style="shape-rendering:geometricPrecision; text-rendering:geometricPrecision; image-rendering:optimizeQuality; fill-rule:evenodd; clip-rule:evenodd"
viewBox="0 0 3425.31 2845.47"
 xmlns:xlink="http://www.w3.org/1999/xlink"
 xmlns:xodm="http://www.corel.com/coreldraw/odm/2003">
 <defs>
  <style type="text/css">
   <![CDATA[
    .fil1 {fill:none;fill-rule:nonzero}
    .fil3 {fill:#4A4229}
    .fil2 {fill:#633100}
    .fil4 {fill:#CE9C00}
    .fil0 {fill:#AD6B08;fill-rule:nonzero}
   ]]>
  </style>
 </defs>
 <g id="Capa_x0020_1">
  <metadata id="CorelCorpID_0Corel-Layer"/>
  <path class="fil0" d="M2881.54 126.81c24.61,-37.84 59.25,-68.76 99.93,-90.56 43.44,-23.29 93.79,-36.25 146.18,-36.25 78.4,0 149.48,28.45 200.99,74.41 51.92,46.32 84.06,110.46 84.06,181.4 0,34.06 -7.59,67.46 -21.94,98.36 -12.86,27.7 -31.2,53.41 -54.36,75.75 122.04,227.1 124.9,559.94 -31.98,916.43 -134.32,305.27 -385.88,628.32 -780.11,917.24 -428.81,314.25 -926.95,495.93 -1362.78,557.78 -484.43,68.73 -893.22,-10.95 -1047.36,-221.28 -155.97,-212.82 -154.35,-566.28 18.54,-950.34 151.28,-336.02 433.82,-696.19 856.67,-1006.08 310.03,-227.2 643.43,-379.18 959.27,-464.8 350.92,-95.13 680.56,-108.4 932.88,-52.07zm429.31 290.47l-0.01 -0.02c24.07,-21.47 42.88,-46.79 55.65,-74.3 12.7,-27.34 19.42,-56.94 19.42,-87.15 0,-62.95 -28.69,-120.05 -75.06,-161.41 -46.79,-41.75 -111.56,-67.6 -183.19,-67.6 -48.05,0 -94.06,11.8 -133.62,33.01 -39.39,21.1 -72.48,51.61 -94.79,89.06l-0.02 -0.01c-9.66,16.18 -17.24,33.54 -22.31,51.76 -4.91,17.58 -7.52,36.08 -7.52,55.19 0,62.94 28.69,120.03 75.06,161.39 46.8,41.75 111.57,67.6 183.2,67.6 35.19,0 68.72,-6.25 99.27,-17.53 31.69,-11.7 60.18,-28.82 83.91,-49.99l0.02 0zm-1355.29 -212.54c-312.88,84.81 -643.18,235.4 -950.37,460.51 -418.85,306.96 -698.54,663.29 -848.09,995.49 -168.82,375.01 -171.66,718.47 -21.36,923.54 148.2,202.22 547.23,277.99 1022.13,210.61 431.87,-61.29 925.57,-241.37 1350.64,-552.88 390.12,-285.9 638.83,-605.1 771.43,-906.43 152.13,-345.73 151.29,-667.5 35.81,-887.61 -23.47,18.52 -50.35,33.63 -79.6,44.44 -33.45,12.35 -70.1,19.18 -108.49,19.18 -78.41,0 -149.48,-28.45 -200.99,-74.41 -51.93,-46.32 -84.07,-110.48 -84.07,-181.38 0,-21.4 2.97,-42.31 8.57,-62.32 4.09,-14.64 9.59,-28.81 16.37,-42.36 -247.24,-53.33 -569.02,-39.35 -911.97,53.62z"/>
  <path class="fil1" d="M3305.42 404.31c9.94,-9.25 18.9,-19.2 26.76,-29.7 8.75,-11.68 16.23,-24.18 22.28,-37.19 6.02,-12.96 10.59,-26.39 13.62,-40.02 2.99,-13.46 4.54,-27.39 4.54,-41.59 0,-28.93 -6.46,-56.53 -18.16,-81.7 -12.19,-26.22 -30.13,-49.9 -52.44,-69.79 -22.57,-20.19 -49.64,-36.46 -79.8,-47.59 -29.05,-10.72 -61,-16.64 -94.56,-16.64 -22.79,0 -45.04,2.76 -66.2,7.99 -21.65,5.34 -42.25,13.26 -61.2,23.42 -18.79,10.06 -36.11,22.43 -51.36,36.76 -14.92,14.01 -27.86,29.92 -38.27,47.4l-1.88 3.14c-3.78,6.61 -7.23,13.5 -10.31,20.63 -3.51,8.16 -6.46,16.42 -8.76,24.71 -2.32,8.3 -4.1,16.84 -5.28,25.52 -1.14,8.34 -1.73,17.09 -1.73,26.15 0,28.91 6.47,56.5 18.17,81.67 12.2,26.24 30.15,49.92 52.44,69.8 22.55,20.18 49.63,36.45 79.79,47.58 29.06,10.72 61.02,16.64 94.58,16.64 16.63,0 32.84,-1.45 48.45,-4.2 16.05,-2.83 31.54,-7.05 46.25,-12.49 15.03,-5.55 29.27,-12.36 42.5,-20.25 13.27,-7.86 25.71,-17 37.13,-27.2l3.43 -3.05z"/>
  <polygon class="fil1" points="230.96,2691.53 233.72,2693.38 "/>
  <polygon class="fil1" points="769.03,2831.09 774.9,2831.28 "/>
  <path class="fil1" d="M3324.71 436.21c-7.11,-13.19 0.55,1.41 2.77,5.63 60.32,114.98 89.92,256.98 83.54,415.29 -6.04,149.62 -44.2,313.92 -118.94,483.79 -69.55,158.06 -170.86,321.03 -307.52,481.59 -125.44,147.39 -280.61,292.69 -468.21,430.19 -204.19,149.62 -424.25,269.11 -645.77,359.78 -241.45,98.84 -484.64,163.43 -710.9,195.53 -135.62,19.24 -265.16,26.87 -384.59,23.26 119.56,3.73 249.09,-3.82 384.63,-23.04 226.33,-32.11 469.55,-96.71 711.03,-195.53 221.4,-90.62 441.44,-210.11 645.73,-359.83 187.93,-137.72 343.27,-283.22 468.77,-430.77 136.38,-160.36 237.55,-323.16 307.03,-481.09 75.68,-171.99 113.86,-338.28 119.14,-489.46 5.52,-158.75 -25.16,-300.86 -86.7,-415.35z"/>
  <path class="fil1" d="M2933.98 85.67c-15.48,14.03 -29.17,29.88 -40.62,47.28l0.19 0.06c10.59,-16.07 23.11,-30.84 37.18,-44.05 16.89,-15.88 36.13,-29.62 57.06,-40.82 20.95,-11.24 43.62,-19.96 67.33,-25.81 23.35,-5.77 47.72,-8.81 72.53,-8.81 36.69,0 71.74,6.52 103.7,18.31 33.24,12.26 63.2,30.3 88.3,52.7 24.97,22.22 45.12,48.87 58.89,78.48 13.3,28.62 20.65,59.98 20.65,92.81 0,15.85 -1.8,31.7 -5.26,47.3 -3.49,15.67 -8.66,30.92 -15.39,45.42 -6.78,14.58 -15.23,28.68 -25.19,41.98 -7.06,9.44 -14.92,18.48 -23.48,27.01l0.13 0.13c9.86,-9.79 18.74,-20.21 26.57,-31.13 8.65,-12.13 16.09,-24.83 22.16,-37.9 6.84,-14.73 12.05,-30 15.52,-45.52 3.42,-15.33 5.17,-31.17 5.17,-47.29 0,-32.84 -7.3,-64.14 -20.49,-92.62 -13.75,-29.7 -33.99,-56.47 -59.11,-78.88 -25.03,-22.33 -54.93,-40.34 -88.11,-52.62 -32.03,-11.85 -67.19,-18.4 -104.05,-18.4 -24.94,0 -49.35,3.05 -72.6,8.81 -23.77,5.9 -46.43,14.62 -67.36,25.83 -19.53,10.46 -37.62,23.14 -53.72,37.74z"/>
  <path class="fil2" d="M2071.9 793.38c0,0 200.2,0 200.2,0 117.28,0 213.24,95.95 213.24,213.23 0,0 0,1081.14 0,1081.14 0,17.37 -14.21,31.57 -31.59,31.57 0,0 -121.22,0 -121.22,0 -147.68,0 -268.5,-120.82 -268.5,-268.49 0,0 0,-1049.56 0,-1049.56 0,-4.34 3.54,-7.88 7.87,-7.88z"/>
  <path class="fil3" d="M1328.75 1133.03c53.08,-0.13 136.49,117.02 316.57,117.02 186.1,0 339.89,-118.38 364.36,-297.76 0,0 2.37,-1.06 2.37,-1.06 1.6,247.74 2.1,638.48 2.1,814.96 0,151.03 -298.12,382.42 -669.73,382.42 -371.61,0 -672.86,-229.23 -672.86,-511.97 0,-282.75 244.84,-502.57 657.2,-503.6z"/>
  <path class="fil4" d="M1635.33 461.29c203.11,0 367.78,164.66 367.78,367.76 0,203.12 -164.68,367.78 -367.78,367.78 -203.12,0 -367.77,-164.67 -367.77,-367.78 0,-203.11 164.66,-367.76 367.77,-367.76z"/>
 </g>
</svg>
